# xmcd
#
# Track frame offsets:
#	150
#	23349
#	36068
#	57081
#	75229
#	88874
#	113251
#	130878
#	151859
#	161309
#	202951
#
# Disc length: 2996 seconds
#
# Revision: 0
# Processed by: cddbd v1.4PL0 Copyright (c) Steve Scherf et al.
# Submitted via: EasyCDDAExtractor 5.0.4.1
#
DISCID=6a0bb20b
DTITLE=Murali Coryell - Strong As I Need To Be
DYEAR=2003
DGENRE=Blues
TTITLE0=Strong As I Need To Be
TTITLE1=Watching You
TTITLE2=Hi Charlie, I Love You Charlie
TTITLE3=You Don't Have To Wait
TTITLE4=Change Is Gonna Come
TTITLE5=Palestinian Eyes
TTITLE6=Strange Eyes
TTITLE7=Doin' It
TTITLE8=Karl Rox
TTITLE9=Beautiful Morning
TTITLE10=Ghana E
EXTD=
EXTT0=
EXTT1=
EXTT2=
EXTT3=
EXTT4=
EXTT5=
EXTT6=
EXTT7=
EXTT8=
EXTT9=
EXTT10=
PLAYORDER=
